<?xml version="1.0" encoding="UTF-8" standalone="no"?>
<!-- Created with Inkscape (http://www.inkscape.org/) -->

<svg
   width="50mm"
   height="50mm"
   viewBox="0 0 50 50"
   version="1.1"
   id="svg1"
   inkscape:version="1.4.3 (0d15f75, 2025-12-25)"
   sodipodi:docname="logo.svg"
   xmlns:inkscape="http://www.inkscape.org/namespaces/inkscape"
   xmlns:sodipodi="http://sodipodi.sourceforge.net/DTD/sodipodi-0.dtd"
   xmlns="http://www.w3.org/2000/svg"
   xmlns:svg="http://www.w3.org/2000/svg">
  <sodipodi:namedview
     id="namedview1"
     pagecolor="#ffffff"
     bordercolor="#000000"
     borderopacity="0.25"
     inkscape:showpageshadow="2"
     inkscape:pageopacity="0.0"
     inkscape:pagecheckerboard="0"
     inkscape:deskcolor="#d1d1d1"
     inkscape:document-units="mm"
     inkscape:zoom="2.3461414"
     inkscape:cx="-4.6885494"
     inkscape:cy="102.29562"
     inkscape:window-width="1591"
     inkscape:window-height="699"
     inkscape:window-x="0"
     inkscape:window-y="30"
     inkscape:window-maximized="0"
     inkscape:current-layer="svg1" />
  <defs
     id="defs1" />
  <ellipse
     style="fill:#225d22;fill-opacity:1;fill-rule:evenodd;stroke:#000c00;stroke-width:1.129;paint-order:markers fill stroke"
     id="path2"
     cx="25"
     cy="25"
     rx="17.490469"
     ry="17.969067" />
  <g
     inkscape:label="Layer 1"
     inkscape:groupmode="layer"
     id="layer1">
    <text
       xml:space="preserve"
       style="font-size:22.5778px;line-height:1;font-family:Merriweather;-inkscape-font-specification:Merriweather;text-align:center;writing-mode:lr-tb;direction:ltr;text-anchor:middle;fill:#000000;fill-rule:evenodd;stroke:#000c00;stroke-width:1.129;paint-order:markers fill stroke;font-weight:normal;font-style:normal;font-stretch:normal;font-variant:normal"
       x="6.17205"
       y="31.234312"
       id="text1"><tspan
         sodipodi:role="line"
         id="tspan1"
         style="stroke-width:1.129;-inkscape-font-specification:Merriweather;font-family:Merriweather;font-weight:normal;font-style:normal;font-stretch:normal;font-variant:normal"
         x="6.17205"
         y="31.234312" /></text>
    <path
       d="m 25.282222,35.148673 c -1.226727,0 -2.310462,-0.218252 -3.251203,-0.654757 -0.933216,-0.436504 -1.723439,-1.042342 -2.370669,-1.817513 -0.639705,-0.775171 -1.125128,-1.670757 -1.456269,-2.686758 -0.33114,-1.023527 -0.496711,-2.11855 -0.496711,-3.28507 0,-1.301987 0.191911,-2.491084 0.575734,-3.567292 0.383823,-1.076209 0.929453,-2.001899 1.636891,-2.77707 0.707437,-0.775171 1.550343,-1.36972 2.528714,-1.783646 0.978371,-0.421453 2.065869,-0.632179 3.262491,-0.632179 0.745067,0 1.377246,0.03763 1.896535,0.112889 0.519291,0.06773 0.967083,0.154282 1.34338,0.259645 0.383822,0.09784 0.726252,0.184386 1.027289,0.259645 0.301037,0.06773 0.598312,0.1016 0.891824,0.1016 l -0.293512,4.052715 h -1.467557 l -0.530577,-3.217336 c -0.105363,-0.158045 -0.274697,-0.312326 -0.508001,-0.462845 -0.225778,-0.150519 -0.523052,-0.274697 -0.891823,-0.372534 -0.368771,-0.09784 -0.816564,-0.146756 -1.343379,-0.146756 -1.16652,0 -2.148654,0.312326 -2.946403,0.936979 -0.797749,0.617127 -1.399823,1.50895 -1.806224,2.675469 -0.398875,1.16652 -0.598312,2.588922 -0.598312,4.267205 -0.0075,1.008475 0.08279,1.998135 0.270934,2.968981 0.188148,0.963319 0.489185,1.836327 0.903112,2.619024 0.413926,0.775171 0.955793,1.396061 1.625602,1.862669 0.669808,0.459082 1.482609,0.688623 2.438402,0.688623 0.44403,0 0.861719,-0.05268 1.253068,-0.158045 0.391349,-0.105363 0.737542,-0.248355 1.038579,-0.428978 0.301037,-0.188148 0.534341,-0.395111 0.699912,-0.620889 v -5.508984 l -2.528715,1.54658 v -2.494847 h 6.107296 v 0.722489 l -1.253068,0.225778 v 6.175029 c -0.27846,0.0075 -0.54563,0.05268 -0.801512,0.135466 -0.255881,0.07526 -0.526815,0.169334 -0.812801,0.282223 -0.285985,0.11289 -0.617126,0.225778 -0.993423,0.338667 -0.376298,0.105363 -0.820327,0.195675 -1.33209,0.270934 -0.504237,0.07526 -1.110075,0.11289 -1.817514,0.112889 z"
       id="text2"
       style="font-size:22.5778px;line-height:1;font-family:Merriweather;-inkscape-font-specification:Merriweather;text-align:center;text-anchor:middle;fill-rule:evenodd;stroke:#f9f9f9;stroke-width:1.129;paint-order:markers fill stroke;fill:#f9f9f9;stroke-opacity:1"
       aria-label="G"
       sodipodi:nodetypes="scccssscsccccccccssccccccssccccccccccsccs" />
    <path
       d="M 19.122679,16.55352 18.447875,16.282586 23.56332,11.82347 h 2.873358 L 31.552125,16.282586 30.877322,16.55352 25,13.731294 Z"
       id="text3"
       style="font-size:22.5778px;line-height:1;font-family:Merriweather;-inkscape-font-specification:Merriweather;text-align:center;text-anchor:middle;fill-rule:evenodd;stroke:#f9f9f9;stroke-width:0.317993;paint-order:markers fill stroke;stroke-opacity:1;fill:#f9f9f9;fill-opacity:1"
       aria-label="â"
       sodipodi:nodetypes="cccccccc" />
  </g>
</svg>
